<svg width="32" height="22" viewBox="0 0 32 22" fill="none" xmlns="http://www.w3.org/2000/svg">
<path d="M16.3269 15.7422C16.7778 15.7422 17.1183 15.5844 17.3679 15.2598C17.6248 14.926 17.755 14.4829 17.755 13.9429V12.6114C17.755 12.0818 17.6233 11.6441 17.3635 11.3103C17.1106 10.9852 16.7698 10.8272 16.3219 10.8272C15.8751 10.8272 15.5399 10.9838 15.297 11.3057C15.0462 11.6383 14.9191 12.0775 14.9191 12.6114V13.943C14.9191 14.4834 15.0478 14.9267 15.3017 15.2607C15.5478 15.5846 15.8832 15.7422 16.3269 15.7422Z" fill="#188983"/>
<path d="M27.676 10.2455C27.9055 9.51923 28.0216 8.76493 28.0216 7.99771C28.0216 3.88307 24.6741 0.535583 20.5596 0.535583C18.0639 0.535583 15.7141 1.80809 14.339 3.88024C13.2817 3.12532 12.0032 2.71319 10.699 2.71319C7.24489 2.71319 4.43476 5.52333 4.43476 8.97753C4.43476 9.38702 4.4745 9.79472 4.55308 10.1941C1.93321 10.7284 0.00012207 13.0651 0.00012207 15.7729C0.00012207 18.9133 2.55495 21.4681 5.69524 21.4681L26.3051 21.4681C29.4454 21.4681 32.0001 18.9132 32.0001 15.7729C32.0001 13.1323 30.2039 10.8671 27.676 10.2455ZM12.1421 12.1335L12.0844 12.3072H10.3573V12.1344C10.3573 11.6975 10.2555 11.363 10.0545 11.1401C9.85812 10.9224 9.53716 10.8121 9.10043 10.8121C8.71603 10.8121 8.41933 10.9639 8.19333 11.2763C7.95786 11.6015 7.8385 12.0268 7.8385 12.5404V14.0038C7.8385 14.5225 7.9638 14.95 8.21095 15.2747C8.45036 15.5893 8.766 15.7422 9.17591 15.7422C9.58201 15.7422 9.88162 15.6372 10.0663 15.43C10.256 15.2171 10.3522 14.8856 10.3522 14.4451V14.2723H12.0742L12.132 14.4458L12.1324 14.4724C12.1466 15.3083 11.8851 15.9834 11.3553 16.479C10.8295 16.971 10.0962 17.2204 9.17584 17.2204C8.24869 17.2204 7.48381 16.9166 6.9023 16.3173C6.32209 15.7196 6.02795 14.9423 6.02795 14.0072V12.5523C6.02795 11.6217 6.3147 10.8451 6.88032 10.2442C7.44884 9.64018 8.19575 9.33394 9.10037 9.33394C10.0465 9.33394 10.8004 9.58365 11.341 10.0762C11.887 10.5738 12.1566 11.2571 12.1424 12.1072L12.1421 12.1335ZM19.5706 13.9366C19.5706 14.8782 19.2671 15.6689 18.6686 16.2868C18.0686 16.9063 17.2809 17.2204 16.327 17.2204C15.3795 17.2204 14.5974 16.9061 14.0025 16.2863C13.4094 15.6685 13.1086 14.8779 13.1086 13.9366V12.6176C13.1086 11.6798 13.4083 10.8902 13.9996 10.2708C14.593 9.6491 15.3743 9.3338 16.3219 9.3338C17.2756 9.3338 18.0643 9.64875 18.6661 10.2699C19.2663 10.8895 19.5706 11.6794 19.5706 12.6176L19.5706 13.9366ZM26.0319 17.1146H20.6826V15.9123L23.1001 13.3203C23.4284 12.9436 23.6665 12.62 23.804 12.3626C23.9342 12.119 24.0001 11.8931 24.0001 11.6914C24.0001 11.4223 23.9319 11.2111 23.7918 11.0453C23.6589 10.8884 23.4707 10.8121 23.2164 10.8121C22.9317 10.8121 22.7238 10.9027 22.5808 11.0893C22.4292 11.2871 22.3522 11.5609 22.3522 11.9028V12.0756H20.6254L20.5676 11.9029L20.5669 11.877C20.5489 11.1703 20.785 10.5631 21.2685 10.0725C21.7514 9.58233 22.4068 9.3338 23.2164 9.3338C24.0124 9.3338 24.6502 9.54716 25.1123 9.96785C25.579 10.3928 25.8156 10.9642 25.8156 11.6662C25.8156 12.141 25.6835 12.5852 25.4227 12.9861C25.1751 13.367 24.7634 13.8701 24.1991 14.4816L23.1385 15.6364H26.032V17.1146H26.0319Z" fill="#188983"/>
</svg>
