<svg width="32" height="32" viewBox="0 0 32 32" fill="none" xmlns="http://www.w3.org/2000/svg">
<g clip-path="url(#clip0_221_1443)">
<path fill-rule="evenodd" clip-rule="evenodd" d="M2.35685 2.50964L12.3308 2.50964V0.980998C12.3282 0.441935 12.7683 0.00183105 13.3074 0.00183105L18.8126 0.00183105C19.3516 0.00183105 19.7917 0.441935 19.7917 0.980998V2.50964L29.6433 2.50964C29.9792 2.50964 30.2553 2.78569 30.2553 3.12162V6.12162L1.74487 6.12162L1.74487 3.12162C1.74487 2.78569 2.01831 2.50964 2.35685 2.50964ZM4.00789 7.71277L28.2058 7.71277C28.711 7.71277 29.1693 8.12944 29.1225 8.62944L27.0756 31.0852C27.0287 31.5878 26.6615 32.0018 26.1589 32.0018H6.02873C5.52612 32.0018 5.15633 31.5878 5.11206 31.0852L3.09123 8.62944C3.04435 8.12683 3.50269 7.71277 4.00789 7.71277ZM10.5808 24.7701L8.97664 22.0122C8.68758 21.5122 8.57821 21.1216 8.82039 20.5435L9.7631 18.9576L8.81779 18.4497L11.9871 18.4367L13.5678 21.1997L12.5912 20.6399L11.0079 23.4471C10.8569 23.7128 10.7319 23.9159 10.6563 24.218C10.6121 24.4029 10.5886 24.5878 10.5808 24.7701ZM11.2188 16.2414L12.7449 13.5852C13.1746 13.0513 13.7084 12.8586 14.2162 13.0018C14.6537 13.1268 14.7761 13.3221 15.0079 13.6789C15.2865 14.1034 15.5287 14.5565 15.7839 15.0018L14.0782 17.9341L11.2188 16.2414ZM14.6902 12.6138L17.8829 12.6034C18.461 12.6008 18.8542 12.705 19.2319 13.2024L20.1329 14.8117L21.047 14.2466L19.474 16.9966L16.2891 16.9836L17.2631 16.4185L15.6225 13.6425C15.4662 13.3794 15.3542 13.1711 15.1303 12.9524C14.9949 12.8221 14.8464 12.7128 14.6902 12.6138ZM21.6407 17.5591L23.1772 20.2076C23.4246 20.8456 23.3256 21.4055 22.9454 21.7727C22.6199 22.0904 22.3881 22.0956 21.9636 22.1216C21.4558 22.1503 20.9428 22.1346 20.4298 22.132L18.7449 19.1893L21.6407 17.5591ZM23.047 22.3794L21.461 25.1503C21.1746 25.6503 20.8881 25.9393 20.2683 26.0201L18.4246 25.9966L18.4558 27.0695L16.8595 24.33L18.461 21.58L18.4636 22.705L21.6876 22.6737C21.9923 22.6711 22.2319 22.6763 22.5313 22.593C22.7136 22.5383 22.8829 22.4654 23.047 22.3794ZM15.461 25.9654L12.3985 25.9706C11.7214 25.8664 11.2865 25.4992 11.1563 24.9888C11.0444 24.5487 11.1537 24.343 11.3464 23.9628C11.5756 23.5096 11.8464 23.0721 12.1042 22.6294L15.4949 22.6425L15.461 25.9654Z" fill="#188983"/>
</g>
<defs>
<clipPath id="clip0_221_1443">
<rect width="32" height="32" fill="white" transform="translate(0.00012207 0.00183105)"/>
</clipPath>
</defs>
</svg>
