<svg width="32" height="32" viewBox="0 0 32 32" fill="none" xmlns="http://www.w3.org/2000/svg">
<g clip-path="url(#clip0_221_1486)">
<path d="M29.5474 11.6815C28.9596 10.8594 28.4266 10.1136 28.1567 8.99047L28.7182 2.52046C28.7259 2.42623 28.6984 2.33072 28.6416 2.25443L27.7038 0.999599C27.5865 0.842224 27.3669 0.797993 27.1948 0.897674C27.0246 0.997356 26.9544 1.20858 27.0333 1.38967L27.7506 3.02624L27.5105 4.50191H25.6973C25.59 4.50191 25.4871 4.54679 25.4121 4.62531C25.3377 4.70416 25.3002 4.81186 25.3092 4.91955L25.4384 6.73754C25.4493 6.89812 25.557 7.03434 25.7105 7.08241L27.1948 7.54877C27.257 9.81965 28.0625 10.9453 28.9112 12.1338C29.9939 13.6457 31.2177 15.3585 31.2177 20.0993C31.2177 22.2827 30.8064 24.061 30.0298 25.2392C29.4298 26.1495 28.6128 26.6716 27.7855 26.6716C26.7797 26.6716 25.7611 25.8523 25.7611 24.285C25.7611 21.0952 23.4245 20.1279 22.1566 19.8359L22.1566 4.56634C22.1566 2.41309 20.4107 0.667542 18.2575 0.667542L6.14119 0.667542C3.98826 0.667542 2.24303 2.41309 2.24303 4.56634L2.24303 23.9279C2.24303 24.3161 2.31611 24.6802 2.42028 25.0334H1.4209L1.4209 28.3162L22.9781 28.3162V25.0334H21.979C22.0832 24.6799 22.1566 24.3138 22.1566 23.9279V20.6263C23.2361 20.8984 24.9823 21.734 24.9823 24.2853C24.9823 26.0908 26.1887 27.453 27.7881 27.453C28.8791 27.453 29.9356 26.804 30.6814 25.6696C31.5433 24.3645 31.9997 22.4372 31.9997 20.1C32 15.1082 30.6968 13.2886 29.5474 11.6815ZM27.5599 6.84619L26.1974 6.41862L26.1163 5.28302H27.6958L27.5599 6.84619ZM19.6559 11.9735C19.6559 14.1268 17.9097 15.8723 15.7571 15.8723H9.48388C9.56722 15.0332 9.76017 14.104 10.1679 13.2284C10.3368 13.1745 10.516 13.1159 10.7006 13.0409C10.9704 12.9383 11.2599 12.8159 11.5512 12.6768C11.8461 12.5386 12.1349 12.3784 12.4304 12.2085C12.725 12.0402 13.0048 11.8469 13.2817 11.6469C13.5516 11.4402 13.8199 11.2335 14.0615 11.0027C14.3019 10.7629 14.5442 10.5418 14.7542 10.2825C15.1859 9.79048 15.552 9.26226 15.8516 8.70392C16.0077 8.44142 16.1375 8.13596 16.2641 7.85935C16.3917 7.58563 16.502 7.28114 16.61 7.00164C16.7186 6.72952 16.8199 6.45099 16.9097 6.18175C17.0061 5.90322 17.0917 5.66027 17.1619 5.46059C17.243 5.26154 17.2933 5.05481 17.3398 4.93333C17.3837 4.79519 17.4042 4.72211 17.4042 4.72211C17.4042 4.72211 17.3398 4.68301 17.2167 4.6266C17.1007 4.57948 16.9119 4.4798 16.6876 4.41986C16.4638 4.35736 16.1609 4.25255 15.852 4.22466C15.5407 4.19454 15.1885 4.183 14.8016 4.20095C14.4266 4.23236 14.0436 4.31217 13.6352 4.41858C13.2263 4.52339 12.8509 4.69839 12.4522 4.89199C12.0612 5.09167 11.7064 5.33815 11.3503 5.60931C11.0147 5.88784 10.6954 6.19682 10.4031 6.52471C10.1317 6.86093 9.85953 7.20902 9.65183 7.57826C9.43741 7.94557 9.25182 8.32411 9.11881 8.71193C8.83098 9.48022 8.71752 10.2693 8.70534 10.9716C8.7063 11.328 8.72778 11.6581 8.77265 11.9636C8.81047 12.2646 8.88611 12.5444 8.94445 12.7687C8.96913 12.8768 9.00182 12.9787 9.03419 13.0678C9.09124 12.9476 9.15343 12.8194 9.22298 12.6803C9.5701 11.9928 10.073 11.0988 10.6644 10.2632C10.9583 9.84305 11.2798 9.4456 11.5939 9.08534C11.7599 8.91194 11.9218 8.74463 12.0737 8.58789C12.2365 8.44045 12.3913 8.30231 12.5327 8.17538C12.6859 8.05968 12.825 7.95487 12.9493 7.8616C13.0686 7.76288 13.1936 7.70454 13.2878 7.64493C13.4776 7.53242 13.5865 7.46896 13.5865 7.46896C13.5865 7.46896 13.483 7.54204 13.3019 7.66864C13.2138 7.73595 13.0958 7.80134 12.9846 7.90903C12.8698 8.01032 12.7416 8.12506 12.599 8.24942C12.4702 8.38757 12.3285 8.53597 12.1801 8.69302C12.0435 8.85809 11.8993 9.0347 11.7512 9.21611C11.4705 9.59336 11.1887 10.0072 10.9323 10.4418C10.4201 11.3024 9.99767 12.2139 9.71497 12.9069C9.67106 13.0139 9.63036 13.1136 9.59478 13.2091C9.20695 14.1063 9.02265 15.0364 8.94541 15.8755H8.35245C6.1992 15.8755 4.45365 14.13 4.45365 11.9767L4.45365 6.38913C4.45365 4.23588 6.1992 2.49033 8.35245 2.49033L15.7584 2.49033C17.9123 2.49033 19.6572 4.23588 19.6572 6.38913V11.9732H19.6559V11.9735Z" fill="#188983"/>
<path d="M23.9422 28.736L0.389812 28.736C0.173782 28.736 6.10352e-05 28.9094 6.10352e-05 29.1267L6.10352e-05 30.9466C6.10352e-05 31.1604 0.173782 31.3361 0.389812 31.3361L23.9445 31.3361C24.1586 31.3361 24.3339 31.1627 24.3339 30.9466V29.1267C24.3329 28.9094 24.1586 28.736 23.9422 28.736ZM23.5528 30.5546L0.779243 30.5546L0.779243 29.5149L23.5528 29.5149V30.5546Z" fill="#188983"/>
</g>
<defs>
<clipPath id="clip0_221_1486">
<rect width="32" height="32" fill="white" transform="translate(6.10352e-05 0.00183105)"/>
</clipPath>
</defs>
</svg>
