<svg width="16" height="17" viewBox="0 0 16 17" fill="none" xmlns="http://www.w3.org/2000/svg">
<path d="M15.792 12.2664H15.7914C15.1836 11.1182 13.2435 9.95808 13.0167 9.8253C12.5663 9.56846 12.088 9.48972 11.6724 9.60649C11.3468 9.69655 11.0799 9.89735 10.8978 10.1889C10.6443 10.4911 10.33 10.8467 10.2627 10.9061C9.74629 11.257 9.42005 11.2229 8.97173 10.774L5.72533 7.52834C5.277 7.07936 5.24363 6.75379 5.57656 6.26079C5.65196 6.17138 6.00888 5.85584 6.3111 5.60232C6.60265 5.42019 6.8028 5.15335 6.89352 4.82778C7.00895 4.41083 6.93089 3.9338 6.6707 3.47617C6.54195 3.25667 5.38176 1.31599 4.23293 0.708217C3.53842 0.341271 2.69912 0.46736 2.14406 1.0231L1.42688 1.7396C0.131246 3.03517 -1.4459 5.80512 2.54635 9.79793L6.70204 13.9535C8.61409 15.8656 10.2453 16.5 11.5689 16.5C13.0093 16.5 14.0848 15.7481 14.7599 15.073L15.4764 14.3565C16.0322 13.8008 16.1589 12.9608 15.792 12.2664Z" fill="#A1EEE1"/>
</svg>
