<svg width="20" height="21" viewBox="0 0 20 21" fill="none" xmlns="http://www.w3.org/2000/svg">
<path d="M11.7623 11.3285C11.4934 11.2311 11.1925 11.288 10.9788 11.477L8.44857 13.7187C8.25041 13.8942 8.15501 14.1575 8.19456 14.4196L8.7014 17.7615C8.74422 18.044 8.93865 18.2809 9.20755 18.3783L12.1693 19.4516C12.4382 19.5491 12.7397 19.4919 12.9531 19.3022L15.4837 17.0611C15.6822 16.8847 15.7776 16.6214 15.738 16.3593L15.2307 13.0173C15.1884 12.7349 14.9933 12.4983 14.7244 12.4009L11.7623 11.3285ZM12.6468 17.6951C12.4744 17.8406 12.2373 17.8829 12.0258 17.8062L10.3719 17.2069C10.1608 17.1304 10.0058 16.946 9.96603 16.7242L9.63967 14.8832C9.60003 14.6609 9.68164 14.4357 9.8545 14.2904L11.2845 13.086C11.4572 12.9411 11.6941 12.8993 11.9052 12.9758L13.559 13.5752C13.7706 13.6518 13.9257 13.8357 13.9649 14.0579L14.2913 15.8988C14.3306 16.1205 14.249 16.3457 14.0768 16.4907L12.6468 17.6951Z" fill="#69DFD0"/>
<path d="M10.4301 6.49246C10.3873 6.20995 10.1929 5.97303 9.92395 5.87558L6.96129 4.80194C6.69238 4.70449 6.39148 4.76138 6.17744 4.95134L3.64718 7.19307C3.44902 7.36857 3.35345 7.63231 3.39317 7.89401L3.89984 11.2363C3.94266 11.5188 4.13725 11.7553 4.40616 11.8527L7.36882 12.9263C7.63772 13.0238 7.93897 12.966 8.15249 12.7774L10.6828 10.5357C10.8809 10.3602 10.9765 10.0964 10.9368 9.83474L10.4301 6.49246Z" fill="#69DFD0"/>
<path d="M15.0649 11.4614C15.3338 11.5588 15.6353 11.5016 15.8487 11.312L18.3794 9.07043C18.5778 8.89446 18.6733 8.63072 18.6338 8.36855L18.1265 5.02656C18.0841 4.74422 17.8895 4.50777 17.6201 4.41015L14.6584 3.33685C14.3895 3.2394 14.0886 3.2963 13.8748 3.48578L11.3445 5.72751C11.1463 5.90301 11.0508 6.16675 11.0905 6.42845L11.597 9.77121C11.6398 10.0537 11.8342 10.2906 12.1031 10.3881L15.0649 11.4614Z" fill="#FECCE3"/>
</svg>
