<svg width="32" height="32" viewBox="0 0 32 32" fill="none" xmlns="http://www.w3.org/2000/svg">
<g clip-path="url(#clip0_221_1478)">
<path d="M30.4466 0.776327C30.3786 0.641827 30.2536 0.545327 30.1071 0.513827C28.6171 0.187827 26.6221 0.0228271 24.1791 0.0228271C21.7181 0.0228271 18.8971 0.199327 16.4386 0.506327C8.82058 1.45783 3.50008 6.80233 3.50008 13.5018L3.50008 22.8408L1.55158 30.1143C1.33758 30.9133 1.81308 31.7363 2.61258 31.9513C3.41158 32.1643 4.23508 31.6888 4.44908 30.8908L5.62508 26.5018L15.5001 26.5018C22.6686 26.5018 28.5001 20.6703 28.5001 13.5018C28.5001 10.1703 28.5001 5.60783 30.4571 1.20483C30.5181 1.06783 30.5141 0.909827 30.4466 0.776327ZM3.48308 30.6318C3.41158 30.8978 3.13758 31.0563 2.87108 30.9853C2.60408 30.9128 2.44558 30.6398 2.51708 30.3728L3.79308 25.5298C3.99558 25.8658 4.29208 26.1358 4.64908 26.3048L3.48308 30.6318ZM26.1736 4.47083C26.1371 4.48433 23.1666 5.62133 18.9011 9.13133C21.6871 8.83733 24.0176 9.48733 24.1376 9.52083C24.4031 9.59683 24.5566 9.87333 24.4811 10.1383C24.4181 10.3583 24.2181 10.5018 24.0001 10.5018C23.9546 10.5018 23.9086 10.4953 23.8631 10.4828C23.8311 10.4733 20.6311 9.59083 17.4051 10.4153C16.7426 11.0088 16.0591 11.6503 15.3536 12.3553C14.5326 13.1768 13.7961 13.9693 13.1256 14.7313C18.2311 13.7208 22.9191 14.9613 23.1316 15.0193C23.3981 15.0923 23.5551 15.3663 23.4826 15.6333C23.4221 15.8558 23.2201 16.0018 23.0001 16.0018C22.9566 16.0018 22.9126 15.9958 22.8686 15.9843C22.8151 15.9698 17.4286 14.5398 12.1311 15.9843C12.1056 15.9913 12.0796 15.9923 12.0541 15.9948C10.7031 17.6458 9.70808 19.0963 9.00008 20.2548C14.1001 19.1973 18.4486 20.4638 18.6436 20.5228C18.9081 20.6023 19.0581 20.8808 18.9791 21.1448C18.9141 21.3618 18.7156 21.5018 18.5001 21.5018C18.4526 21.5018 18.4046 21.4948 18.3566 21.4808C18.3081 21.4668 13.5301 20.0783 8.31058 21.4413C7.71858 22.5243 7.47508 23.1583 7.46858 23.1753C7.39408 23.3768 7.20308 23.5018 7.00008 23.5018C6.94258 23.5018 6.88408 23.4913 6.82658 23.4708C6.56758 23.3753 6.43558 23.0878 6.53058 22.8293C6.55908 22.7533 6.84408 22.0033 7.53558 20.7588C8.45408 15.9853 7.52158 11.6538 7.51158 11.6103C7.45208 11.3408 7.62208 11.0738 7.89158 11.0143C8.16308 10.9508 8.42808 11.1243 8.48808 11.3938C8.52258 11.5498 9.19908 14.6723 8.84458 18.6223C9.55158 17.5618 10.4466 16.3398 11.5766 14.9918C12.4231 9.84483 11.5211 5.65333 11.5116 5.61033C11.4521 5.34083 11.6221 5.07383 11.8916 5.01383C12.1611 4.95583 12.4281 5.12433 12.4881 5.39383C12.5246 5.55883 13.2726 9.03133 12.7736 13.6228C13.3506 12.9843 13.9676 12.3273 14.6461 11.6488C15.2886 11.0063 15.9106 10.4218 16.5181 9.87033V9.86633C17.4546 6.58833 16.5441 4.21033 16.5346 4.18683C16.4336 3.93033 16.5591 3.63983 16.8156 3.53833C17.0706 3.43533 17.3616 3.56033 17.4641 3.81683C17.5016 3.91083 18.2636 5.86983 17.7926 8.74833C22.4251 4.82283 25.6641 3.59283 25.8271 3.53283C26.0861 3.43883 26.3731 3.56933 26.4686 3.82883C26.5646 4.08733 26.4321 4.37483 26.1736 4.47083Z" fill="#188983"/>
</g>
<defs>
<clipPath id="clip0_221_1478">
<rect width="32" height="32" fill="white" transform="translate(6.10352e-05 0.00183105)"/>
</clipPath>
</defs>
</svg>
