<svg width="32" height="32" viewBox="0 0 32 32" fill="none" xmlns="http://www.w3.org/2000/svg">
<g clip-path="url(#clip0_221_1497)">
<path d="M11.3726 0.00183105L20.6277 0.00183105L24.3561 6.55853L27.8565 4.53761L28.8565 6.26967L26.6603 14.4658L18.4642 12.2697L17.4642 10.5376L20.8919 8.55857L18.3008 4.00183L13.6994 4.00183L12.5911 5.95077L9.12695 3.95073L11.3726 0.00183105Z" fill="#188983"/>
<path d="M26.3299 18.1211L27.4079 20.0171L25.2111 24.0019H20.0001V20.0018H18.0001L12.0001 26.0017L18.0001 32.0017H20.0001V28.0019H27.5737L31.9921 19.9867L29.7939 16.1211L26.3299 18.1211Z" fill="#188983"/>
<path d="M6.78902 24.0018H9.00008L9.00008 28.0018H4.42662L0.00793457 19.9866L3.68932 13.5129L0.143676 11.4658L1.14367 9.73376L9.33984 7.5376L11.536 15.7338L10.536 17.4658L7.1535 15.5129L4.59222 20.017L6.78902 24.0018Z" fill="#188983"/>
</g>
<defs>
<clipPath id="clip0_221_1497">
<rect width="32" height="32" fill="white" transform="translate(0.00012207 0.00183105)"/>
</clipPath>
</defs>
</svg>
