<svg width="26" height="22" viewBox="0 0 26 22" fill="none" xmlns="http://www.w3.org/2000/svg">
<path d="M15.2351 6.25178C15.4381 5.8668 15.5361 5.43519 15.5195 5.00031C15.5028 4.56543 15.372 4.1426 15.1401 3.77428L13.2101 0.694283C13.1879 0.658612 13.1569 0.629143 13.1202 0.608604C13.0835 0.588065 13.0422 0.57712 13.0001 0.576783C12.9577 0.576698 12.9159 0.587442 12.8787 0.608001C12.8415 0.62856 12.8102 0.658255 12.7876 0.694283L10.8551 3.77928C10.6258 4.14757 10.4962 4.5692 10.4792 5.00272C10.4622 5.43625 10.5583 5.86674 10.758 6.25187C10.9578 6.63701 11.2543 6.96353 11.6185 7.19934C11.9827 7.43514 12.402 7.57211 12.8351 7.59678H13.1601C13.5937 7.57472 14.0138 7.43877 14.3781 7.20264C14.7424 6.96651 15.038 6.63855 15.2351 6.25178ZM13.1326 7.09178C13.0427 7.09678 12.9526 7.09678 12.8626 7.09178C12.5165 7.07166 12.1815 6.96188 11.8906 6.77322C11.5996 6.58456 11.3627 6.3235 11.2031 6.01566C11.0435 5.70782 10.9667 5.36377 10.9802 5.01729C10.9937 4.6708 11.0971 4.33377 11.2801 4.03928L12.9976 1.28928L14.7151 4.03928C14.8982 4.33377 15.0016 4.6708 15.0151 5.01729C15.0286 5.36377 14.9517 5.70782 14.7922 6.01566C14.6326 6.3235 14.3957 6.58456 14.1047 6.77322C13.8138 6.96188 13.4788 7.07166 13.1326 7.09178Z" fill="#188983"/>
<path d="M8.8926 13.3518H9.0226H9.1551C9.50038 13.3323 9.83455 13.2229 10.1244 13.0343C10.4143 12.8457 10.6498 12.5846 10.8076 12.2768C10.9802 11.9534 11.0656 11.5906 11.0555 11.2242C11.0455 10.8578 10.9402 10.5002 10.7501 10.1868L9.2501 7.68681C9.22781 7.65007 9.19644 7.6197 9.159 7.59862C9.12156 7.57754 9.07931 7.56647 9.03635 7.56647C8.99338 7.56647 8.95114 7.57754 8.9137 7.59862C8.87626 7.6197 8.84488 7.65007 8.8226 7.68681L7.3101 10.1868C7.11914 10.4999 7.01316 10.8573 7.00264 11.2238C6.99212 11.5904 7.07741 11.9533 7.2501 12.2768C7.407 12.5832 7.64096 12.8434 7.92896 13.0319C8.21695 13.2204 8.54906 13.3306 8.8926 13.3518ZM7.7251 10.4468L9.0226 8.29931L10.3226 10.4468C10.4679 10.6864 10.5482 10.9598 10.5557 11.2399C10.5631 11.5201 10.4974 11.7973 10.3651 12.0443C10.2476 12.2783 10.0698 12.4766 9.85007 12.619C9.63035 12.7614 9.37665 12.8426 9.1151 12.8543C9.0476 12.8543 8.9801 12.8543 8.9101 12.8543C8.64855 12.8426 8.39484 12.7614 8.17513 12.619C7.95541 12.4766 7.77763 12.2783 7.6601 12.0443C7.53038 11.7956 7.46812 11.5172 7.47952 11.2369C7.49093 10.9566 7.5756 10.6842 7.7251 10.4468Z" fill="#188983"/>
<path d="M15.1877 12.2768C15.3454 12.5846 15.5809 12.8457 15.8708 13.0343C16.1607 13.2229 16.4949 13.3323 16.8402 13.3518H16.9727H17.1027C17.4471 13.3315 17.7802 13.2216 18.0691 13.0331C18.3581 12.8445 18.5928 12.5839 18.7502 12.2768C18.9232 11.9535 19.0089 11.5907 18.9988 11.2242C18.9888 10.8576 18.8832 10.5001 18.6926 10.1868L17.1802 7.68681C17.1579 7.65007 17.1265 7.6197 17.0891 7.59862C17.0516 7.57754 17.0094 7.56647 16.9664 7.56647C16.9234 7.56647 16.8812 7.57754 16.8438 7.59862C16.8063 7.6197 16.7749 7.65007 16.7527 7.68681L15.2527 10.1868C15.0609 10.4994 14.9541 10.8566 14.9427 11.2232C14.9313 11.5897 15.0157 11.9529 15.1877 12.2768ZM15.6727 10.4468L16.9727 8.29931L18.2702 10.4468C18.4162 10.6862 18.4969 10.9596 18.5044 11.2399C18.5118 11.5202 18.4457 11.7975 18.3127 12.0443C18.1951 12.2783 18.0173 12.4766 17.7976 12.619C17.5779 12.7614 17.3242 12.8426 17.0627 12.8543C16.9952 12.8543 16.9252 12.8543 16.8552 12.8543C16.5936 12.8426 16.3399 12.7614 16.1202 12.619C15.9005 12.4766 15.7227 12.2783 15.6052 12.0443C15.4765 11.7951 15.4151 11.5168 15.427 11.2366C15.4388 10.9565 15.5235 10.6842 15.6727 10.4468Z" fill="#188983"/>
<path d="M14.0226 4.32929C13.9563 4.32929 13.8927 4.35562 13.8458 4.40251C13.7989 4.44939 13.7726 4.51298 13.7726 4.57929C13.7552 4.91831 13.631 5.24313 13.4177 5.50721C13.2044 5.77128 12.9129 5.96103 12.5851 6.04928C12.5188 6.05923 12.4592 6.09511 12.4193 6.14902C12.3795 6.20294 12.3627 6.27048 12.3726 6.33678C12.3826 6.40309 12.4184 6.46273 12.4723 6.50258C12.5263 6.54243 12.5938 6.55923 12.6601 6.54928C12.6849 6.55001 12.7095 6.54576 12.7326 6.53678C13.1614 6.4169 13.5413 6.16444 13.8179 5.81553C14.0946 5.46662 14.2537 5.03914 14.2726 4.59428C14.2747 4.56021 14.2697 4.52609 14.2581 4.494C14.2464 4.46192 14.2283 4.43256 14.2049 4.40773C14.1815 4.3829 14.1532 4.36313 14.1219 4.34964C14.0905 4.33615 14.0567 4.32922 14.0226 4.32929Z" fill="#188983"/>
<path d="M16.7501 12.3318C16.9189 12.3381 17.0872 12.3095 17.2445 12.2478C17.4017 12.186 17.5445 12.0925 17.664 11.9731C17.7834 11.8537 17.8769 11.7108 17.9386 11.5536C18.0003 11.3964 18.0289 11.2281 18.0226 11.0593C18.0226 10.993 17.9963 10.9294 17.9494 10.8825C17.9025 10.8356 17.8389 10.8093 17.7726 10.8093C17.7063 10.8093 17.6427 10.8356 17.5958 10.8825C17.549 10.9294 17.5226 10.993 17.5226 11.0593C17.528 11.1621 17.5117 11.265 17.4748 11.3612C17.4379 11.4573 17.3812 11.5447 17.3084 11.6175C17.2355 11.6903 17.1482 11.7471 17.052 11.784C16.9558 11.8209 16.853 11.8372 16.7501 11.8318C16.6838 11.8318 16.6202 11.8581 16.5733 11.905C16.5265 11.9519 16.5001 12.0155 16.5001 12.0818C16.5001 12.1481 16.5265 12.2117 16.5733 12.2585C16.6202 12.3054 16.6838 12.3318 16.7501 12.3318Z" fill="#188983"/>
<path d="M8.62012 12.2368C8.78912 12.2435 8.95769 12.2151 9.11523 12.1536C9.27276 12.092 9.41588 11.9986 9.5356 11.8791C9.65532 11.7596 9.74905 11.6167 9.81091 11.4592C9.87278 11.3018 9.90145 11.1333 9.89512 10.9643C9.89512 10.898 9.86878 10.8344 9.82189 10.7875C9.77501 10.7406 9.71142 10.7143 9.64512 10.7143C9.57881 10.7143 9.51522 10.7406 9.46834 10.7875C9.42146 10.8344 9.39512 10.898 9.39512 10.9643C9.3986 11.067 9.38094 11.1693 9.34323 11.2649C9.30551 11.3606 9.24855 11.4474 9.17588 11.5201C9.10321 11.5927 9.01637 11.6497 8.92077 11.6874C8.82517 11.7251 8.72283 11.7428 8.62012 11.7393C8.55381 11.7393 8.49022 11.7656 8.44334 11.8125C8.39646 11.8594 8.37012 11.923 8.37012 11.9893C8.37012 12.0556 8.39646 12.1192 8.44334 12.1661C8.49022 12.213 8.55381 12.2393 8.62012 12.2393V12.2368Z" fill="#188983"/>
<path d="M11.4126 18.4593C11.4032 18.4495 11.3932 18.4403 11.3826 18.4318C10.7693 18.0135 10.2394 17.4844 9.82013 16.8718C9.81131 16.8577 9.80034 16.845 9.78763 16.8343L7.96013 15.0018C7.8044 14.8524 7.59591 14.7706 7.38013 14.7743C7.16277 14.7701 6.95253 14.8518 6.79513 15.0018L6.48763 15.3093L6.14263 15.2243C5.83588 15.1525 5.55479 14.9976 5.33013 14.7768C4.96513 14.4118 3.83013 12.6718 2.30263 10.1218C2.2486 10.0333 2.17508 9.95839 2.08766 9.9027C2.00024 9.84701 1.90125 9.81204 1.79825 9.80046C1.69525 9.78888 1.59097 9.801 1.49337 9.83589C1.39577 9.87079 1.30744 9.92753 1.23513 10.0018L0.947626 10.2893C0.851127 10.3854 0.785714 10.5083 0.759861 10.642C0.734008 10.7757 0.748906 10.9141 0.802626 11.0393L3.18513 16.5518C3.19012 16.5671 3.19773 16.5815 3.20763 16.5943C3.76987 17.4074 4.54959 18.0459 5.45763 18.4368L7.62763 19.3718C7.76626 19.4299 7.89202 19.5148 7.99763 19.6218L9.74763 21.3718C9.79419 21.418 9.85704 21.444 9.92263 21.4443C9.95553 21.4445 9.98814 21.4382 10.0186 21.4257C10.0491 21.4133 10.0768 21.395 10.1001 21.3718L12.0301 19.4393C12.0767 19.3924 12.1028 19.3291 12.1028 19.263C12.1028 19.197 12.0767 19.1336 12.0301 19.0868L11.4126 18.4593ZM9.91263 20.8218L8.35513 19.2643C8.20367 19.1126 8.02463 18.9913 7.82763 18.9068L5.65763 17.9743C4.84151 17.6247 4.13928 17.0541 3.63013 16.3268L1.26013 10.8268C1.24547 10.7936 1.24121 10.7567 1.2479 10.721C1.2546 10.6853 1.27193 10.6524 1.29763 10.6268L1.58763 10.3368C1.60736 10.3177 1.63098 10.3032 1.65687 10.2941C1.68277 10.285 1.71032 10.2817 1.73763 10.2843C1.76482 10.2881 1.79082 10.298 1.81374 10.3131C1.83666 10.3282 1.85592 10.3483 1.87013 10.3718C2.79263 11.9118 4.42513 14.5768 4.97263 15.1218C5.25413 15.4085 5.60993 15.611 6.00013 15.7068L6.42763 15.8118L8.50013 17.9843C8.54697 18.0308 8.61033 18.057 8.67638 18.057C8.74242 18.057 8.80579 18.0308 8.85263 17.9843C8.87606 17.961 8.89466 17.9334 8.90735 17.9029C8.92004 17.8725 8.92658 17.8398 8.92658 17.8068C8.92658 17.7738 8.92004 17.7411 8.90735 17.7106C8.89466 17.6802 8.87606 17.6525 8.85263 17.6293L6.91513 15.5818L7.14763 15.3468C7.21243 15.292 7.29536 15.2635 7.38013 15.2668C7.46337 15.2635 7.54473 15.2922 7.60763 15.3468L9.42013 17.1593C9.86484 17.8119 10.4258 18.3772 11.0751 18.8268L11.5001 19.2518L9.91263 20.8218Z" fill="#188983"/>
<path d="M25.0526 10.2818L24.7651 10.0018C24.6921 9.92846 24.6033 9.87277 24.5055 9.83894C24.4078 9.80511 24.3036 9.79405 24.2008 9.80658C24.0981 9.81912 23.9997 9.85493 23.9129 9.91128C23.8261 9.96764 23.7533 10.0431 23.7001 10.1318C22.1701 12.6818 21.0376 14.4218 20.6726 14.7868C20.4524 15.0046 20.1765 15.1577 19.8751 15.2293L19.5151 15.3193L19.2076 15.0018C19.0502 14.8518 18.84 14.7701 18.6226 14.7743C18.5161 14.7722 18.4102 14.7913 18.3111 14.8303C18.212 14.8694 18.1216 14.9276 18.0451 15.0018L16.2151 16.8318C16.2024 16.8425 16.1914 16.8552 16.1826 16.8693C15.7633 17.4819 15.2334 18.011 14.6201 18.4293C14.6095 18.4378 14.5995 18.447 14.5901 18.4568L13.9801 19.0668C13.9335 19.1136 13.9074 19.177 13.9074 19.243C13.9074 19.3091 13.9335 19.3724 13.9801 19.4193L15.9101 21.3518C15.9335 21.3749 15.9612 21.3933 15.9916 21.4057C16.0221 21.4182 16.0547 21.4245 16.0876 21.4243C16.1532 21.424 16.216 21.398 16.2626 21.3518L18.0001 19.6018C18.1057 19.4948 18.2315 19.4098 18.3701 19.3518L20.5401 18.4168C21.4481 18.0259 22.2279 17.3874 22.7901 16.5743C22.8 16.5615 22.8076 16.5471 22.8126 16.5318L25.1951 11.0193C25.2464 10.8959 25.2603 10.7602 25.2349 10.6291C25.2096 10.4979 25.1462 10.3771 25.0526 10.2818ZM24.7501 10.8368L22.3801 16.3368C21.871 17.0641 21.1687 17.6347 20.3526 17.9843L18.1826 18.9168C17.9856 19.0013 17.8066 19.1226 17.6551 19.2743L16.0976 20.8318L14.5001 19.2518L14.9251 18.8268C15.5744 18.3804 16.1362 17.8186 16.5826 17.1693L18.3951 15.3568C18.458 15.3021 18.5394 15.2735 18.6226 15.2768C18.7074 15.2735 18.7903 15.302 18.8551 15.3568L19.0876 15.5918L17.1501 17.6393C17.1267 17.6625 17.1081 17.6902 17.0954 17.7206C17.0827 17.7511 17.0762 17.7838 17.0762 17.8168C17.0762 17.8498 17.0827 17.8825 17.0954 17.9129C17.1081 17.9434 17.1267 17.971 17.1501 17.9943C17.1969 18.0408 17.2603 18.067 17.3264 18.067C17.3924 18.067 17.4558 18.0408 17.5026 17.9943L19.5576 15.8218L20.0001 15.7018C20.3847 15.6095 20.7361 15.4121 21.0151 15.1318C21.5626 14.5868 23.1951 11.9218 24.1176 10.3818C24.1318 10.3583 24.1511 10.3382 24.174 10.3231C24.1969 10.308 24.2229 10.2981 24.2501 10.2943C24.2775 10.291 24.3052 10.294 24.3312 10.3031C24.3572 10.3122 24.3808 10.3271 24.4001 10.3468L24.6901 10.6368C24.7197 10.6597 24.7413 10.6913 24.7521 10.7272C24.7628 10.763 24.7621 10.8013 24.7501 10.8368Z" fill="#188983"/>
</svg>
