<svg width="18" height="18" viewBox="0 0 18 18" fill="none" xmlns="http://www.w3.org/2000/svg">
<mask id="mask0_21_675" style="mask-type:luminance" maskUnits="userSpaceOnUse" x="-4" y="-4" width="26" height="26">
<path d="M21.6 -3.08571H-3.08571V21.6H21.6V-3.08571Z" fill="white"/>
</mask>
<g mask="url(#mask0_21_675)">
<path d="M7.71429 14.4C11.4067 14.4 14.4 11.4067 14.4 7.71429C14.4 4.02187 11.4067 1.02857 7.71429 1.02857C4.02187 1.02857 1.02857 4.02187 1.02857 7.71429C1.02857 11.4067 4.02187 14.4 7.71429 14.4Z" stroke="#072C2C" stroke-width="2" stroke-linejoin="round"/>
<path d="M17.122 17.8494C17.3229 18.0502 17.6485 18.0502 17.8494 17.8494C18.0502 17.6485 18.0502 17.3229 17.8494 17.122L17.122 17.8494ZM17.8494 17.122L12.7066 11.9791L11.9791 12.7065L17.122 17.8494L17.8494 17.122Z" fill="#072C2C"/>
</g>
</svg>
