<svg width="16" height="16" viewBox="0 0 16 16" fill="none" xmlns="http://www.w3.org/2000/svg">
<path d="M15.792 11.7664H15.7914C15.1836 10.6182 13.2435 9.45808 13.0167 9.3253C12.5663 9.06846 12.088 8.98972 11.6724 9.10649C11.3468 9.19655 11.0799 9.39735 10.8978 9.6889C10.6443 9.99111 10.33 10.3467 10.2627 10.4061C9.74629 10.757 9.42005 10.7229 8.97173 10.274L5.72533 7.02834C5.277 6.57936 5.24363 6.25379 5.57656 5.76079C5.65196 5.67138 6.00888 5.35584 6.3111 5.10232C6.60265 4.92019 6.8028 4.65335 6.89352 4.32778C7.00895 3.91083 6.93089 3.4338 6.6707 2.97617C6.54195 2.75667 5.38176 0.815989 4.23293 0.208217C3.53842 -0.158729 2.69912 -0.0326401 2.14406 0.523095L1.42688 1.2396C0.131246 2.53517 -1.4459 5.30512 2.54635 9.29793L6.70204 13.4535C8.61409 15.3656 10.2453 16 11.5689 16C13.0093 16 14.0848 15.2481 14.7599 14.573L15.4764 13.8565C16.0322 13.3008 16.1589 12.4608 15.792 11.7664Z" fill="#A1EEE1"/>
</svg>
